{"title":"Lets.Kill.Wards.Wife.2014.BRRip.480p.x264.AAC-VYTO [P2PDL]","uid":11698107,"size":320935824,"categoryP":"video","categoryS":"movies","magnet":"?xt=urn:btih:385f33d38ec1bce6ac4df5f973cae42a6fa6d739&amp;dn=Lets.Kill.Wards.Wife.2014.BRRip.480p.x264.AAC-VYTO+%5BP2PDL%5D&amp;tr=udp%3A%2F%2Ftracker.openbittorrent.com%3A80&amp;tr=udp%3A%2F%2Fopen.demonii.com%3A1337&amp;tr=udp%3A%2F%2Ftracker.coppersurfer.tk%3A6969&amp;tr=udp%3A%2F%2Fexodus.desync.com%3A6969","seeders":1,"leechers":1,"uploader":"ValidusVyto","files":6,"time":1423811593,"description":"Lets.Kill.Wards.Wife.2014.BRRip.480p.x264.AAC-VYTO\n\n\nGenre:  Comedy | Crime\nIMDb: http://www.imdb.com/title/tt2980708/\n\nFormat                      : MPEG-4\nFile size                   : 301 MiB\nDuration                    : 1h 22mn \nOverall bit rate            : 512 Kbps\n\nVideo\nFormat                      : AVC\nBit rate                    : 477 Kbps\nWidth                       : 720 pixels\nHeight                      : 304 pixels\nDisplay aspect ratio        : 2.35:1\nFrame rate mode             : Constant\nFrame rate                  : 23.976 fps\nBit depth                   : 8 bits\nStream size                 : 281 MiB (93%)\nWriting library             : x264 core 144\n\nAudio\nFormat                      : AAC\nBit rate                    : 32.0 Kbps\nChannel(s)                  : 2 channels\nChannel positions           : Front: L R\nSampling rate               : 48.0 KHz\nStream size                 : 18.8 MiB (6%)\nLanguage                    : English\n\nSubtitle                    : Yes(English)\nSource                      : 720p.BluRay.x264-ROVERS\n\n----------------------------------------------------------------------------------------------------\n\n\nEncoder Notes: Looking For Early Access To Anything You Can Provide DVDScr, R5, DVDR, BluRay, Direct\nAudio, Music Releases and Seedboxes. If You Got anything to offer please contact us.\n\nWe require dedicated servers, so as to do more and fast releases of movies.\nSupport us by sending us LC - LezHMTo2cYaiztCCcWxB4cNFVNVpWW3GSx","torrent":{"xt":"urn:btih:385f33d38ec1bce6ac4df5f973cae42a6fa6d739","amp;dn":"Lets.Kill.Wards.Wife.2014.BRRip.480p.x264.AAC-VYTO+%5BP2PDL%5D","amp;tr":["udp%3A%2F%2Ftracker.openbittorrent.com%3A80","udp%3A%2F%2Fopen.demonii.com%3A1337","udp%3A%2F%2Ftracker.coppersurfer.tk%3A6969","udp%3A%2F%2Fexodus.desync.com%3A6969"],"infoHash":"385f33d38ec1bce6ac4df5f973cae42a6fa6d739","infoHashBuffer":{"type":"Buffer","data":[56,95,51,211,142,193,188,230,172,77,245,249,115,202,228,42,111,166,215,57]},"announce":[],"urlList":[]}}